HIERARCHY
ROOT Hips
{
	OFFSET 0.000000 0.000000 0.000000
	CHANNELS 6 Xposition Yposition Zposition Xrotation Yrotation Zrotation
	JOINT LeftUpLeg_virtual
	{
		OFFSET 0.000000 0.000000 0.000000
		CHANNELS 3 Xrotation Yrotation Zrotation
		JOINT LeftUpLeg
		{
			OFFSET 10.205400 -3.823500 0.155100
			CHANNELS 3 Xrotation Yrotation Zrotation
			JOINT LeftLeg
			{
				OFFSET 0.708757 -12.982077 0.567790
				CHANNELS 3 Xrotation Yrotation Zrotation
				JOINT LeftFoot
				{
					OFFSET -0.708756 -10.717838 -2.184338
					CHANNELS 3 Xrotation Yrotation Zrotation
					JOINT LeftToeBase
					{
						OFFSET 0.108149 -7.191104 7.560241
						CHANNELS 3 Xrotation Yrotation Zrotation
						JOINT LeftToe_End
						{
							OFFSET 0.070230 0.081724 4.490308
							CHANNELS 3 Xrotation Yrotation Zrotation
							End Site
							{
								OFFSET 0 0 0
							}
						}
					}
				}
			}
		}
	}
	JOINT RightUpLeg_virtual
	{
		OFFSET 0.000000 0.000000 0.000000
		CHANNELS 3 Xrotation Yrotation Zrotation
		JOINT RightUpLeg
		{
			OFFSET -10.205400 -3.823500 0.005500
			CHANNELS 3 Xrotation Yrotation Zrotation
			JOINT RightLeg
			{
				OFFSET -0.708756 -12.982134 0.610632
				CHANNELS 3 Xrotation Yrotation Zrotation
				JOINT RightFoot
				{
					OFFSET 0.708754 -10.717769 -1.945823
					CHANNELS 3 Xrotation Yrotation Zrotation
					JOINT RightToeBase
					{
						OFFSET -0.108140 -7.191069 7.372968
						CHANNELS 3 Xrotation Yrotation Zrotation
						JOINT RightToe_End
						{
							OFFSET -0.070227 0.081735 4.479403
							CHANNELS 3 Xrotation Yrotation Zrotation
							End Site
							{
								OFFSET 0 0 0
							}
						}
					}
				}
			}
		}
	}
	JOINT Spine_virtual
	{
		OFFSET 0.000000 0.000000 0.000000
		CHANNELS 3 Xrotation Yrotation Zrotation
		JOINT Spine
		{
			OFFSET 0.000000 6.876099 0.125700
			CHANNELS 3 Xrotation Yrotation Zrotation
			JOINT Spine1
			{
				OFFSET 0.000000 5.730043 0.104720
				CHANNELS 3 Xrotation Yrotation Zrotation
				JOINT Spine1_split
				{
					OFFSET 0.000000 5.730043 0.104720
					CHANNELS 3 Xrotation Yrotation Zrotation
					JOINT Spine2
					{
						OFFSET 0.000000 5.730043 0.104720
						CHANNELS 3 Xrotation Yrotation Zrotation
						JOINT Neck_virtual
						{
							OFFSET 0.000000 0.000000 0.000000
							CHANNELS 3 Xrotation Yrotation Zrotation
							JOINT Neck
							{
								OFFSET 0.000000 10.314075 0.188496
								CHANNELS 3 Xrotation Yrotation Zrotation
								JOINT Head
								{
									OFFSET 0.000000 7.643700 -2.377400
									CHANNELS 3 Xrotation Yrotation Zrotation
									JOINT HeadTop_End
									{
										OFFSET 0.000000 43.788605 -13.619600
										CHANNELS 3 Xrotation Yrotation Zrotation
										End Site
										{
											OFFSET 0 0 0
										}
									}
								}
							}
						}
						JOINT LeftShoulder_virtual
						{
							OFFSET 0.000000 0.000000 0.000000
							CHANNELS 3 Xrotation Yrotation Zrotation
							JOINT LeftShoulder
							{
								OFFSET 2.196100 4.412489 0.087492
								CHANNELS 3 Xrotation Yrotation Zrotation
								JOINT LeftShoulder_split
								{
									OFFSET 2.196100 4.412489 0.087492
									CHANNELS 3 Xrotation Yrotation Zrotation
									JOINT LeftArm
									{
										OFFSET 8.771219 -2.981674 -0.026999
										CHANNELS 3 Xrotation Yrotation Zrotation
										JOINT LeftForeArm
										{
											OFFSET 8.512804 0.000000 -0.000000
											CHANNELS 3 Xrotation Yrotation Zrotation
											JOINT LeftHand
											{
												OFFSET 18.484802 0.000000 -0.000000
												CHANNELS 3 Xrotation Yrotation Zrotation
												End Site
												{
													OFFSET 0 0 0
												}
											}
										}
									}
								}
							}
						}
						JOINT RightShoulder_virtual
						{
							OFFSET 0.000000 0.000000 0.000000
							CHANNELS 3 Xrotation Yrotation Zrotation
							JOINT RightShoulder
							{
								OFFSET -2.196100 4.412496 0.070690
								CHANNELS 3 Xrotation Yrotation Zrotation
								JOINT RightShoulder_split
								{
									OFFSET -2.196100 4.412496 0.070690
									CHANNELS 3 Xrotation Yrotation Zrotation
									JOINT RightArm
									{
										OFFSET -8.771282 -2.981682 -0.094208
										CHANNELS 3 Xrotation Yrotation Zrotation
										JOINT RightForeArm
										{
											OFFSET -8.494598 0.000000 0.000000
											CHANNELS 3 Xrotation Yrotation Zrotation
											JOINT RightHand
											{
												OFFSET -18.483803 0.000000 0.000001
												CHANNELS 3 Xrotation Yrotation Zrotation
												End Site
												{
													OFFSET 0 0 0
												}
											}
										}
									}
								}
							}
						}
					}
				}
			}
		}
	}
}
MOTION
Frames: 7
Frame Time: 0.03333333
0.186834 5.722181 0.522068 0.000000 0.000000 0.000000 -90.220891 -3.509029 -3.003288 -21.249719 12.443823 -4.781901 32.940100 -10.129436 -7.746741 -2.757401 7.138515 8.722528 9.844992 -0.106646 2.783866 0.000000 0.000000 0.000000 -91.588288 -4.399128 -6.593221 -3.873310 -7.414703 -3.959056 17.037950 0.816671 9.208371 4.426642 -5.713819 29.105973 0.169083 -1.534387 -0.557619 0.000000 0.000000 0.000000 -87.944402 -4.353458 -5.909713 4.521574 2.470407 2.022173 -1.384820 1.021599 -0.053590 0.416233 0.657478 -0.271323 0.000000 0.000000 0.000000 -1.995707 0.469621 0.247483 2.508400 0.830230 -0.114236 10.579385 -5.270265 10.440974 0.000000 0.000000 0.000000 -2.761938 1.052146 0.203597 0.989491 -14.002550 -3.546948 -2.758360 -0.122203 -3.982736 27.291192 0.235728 -69.237006 -178.914319 -39.074740 -178.237652 0.000000 0.000000 0.000000 -2.013817 0.723474 -0.738493 0.979823 2.144719 0.533655 0.804988 4.153881 0.425891 12.069627 7.409402 73.158709 -179.868128 46.113015 -179.365822 0.000000 0.000000 0.000000 
0.187128 5.721918 0.522408 0.000000 0.000000 0.000000 -90.219511 -3.509476 -3.003507 -21.252784 12.441484 -4.783388 32.942477 -10.128202 -7.746760 -2.755941 7.138999 8.720262 9.844807 -0.106847 2.783038 0.000000 0.000000 0.000000 -91.585494 -4.396505 -6.589639 -3.872632 -7.418490 -3.960884 17.036099 0.817524 9.209595 4.428966 -5.715742 29.104109 0.167623 -1.534970 -0.556837 0.000000 0.000000 0.000000 -87.943166 -4.354268 -5.911611 4.522774 2.469852 2.021827 -1.386613 1.021346 -0.053674 0.417560 0.665115 -0.272709 0.000000 0.000000 0.000000 -1.997043 0.468737 0.246865 2.504808 0.829511 -0.114873 10.580986 -5.269627 10.438246 0.000000 0.000000 0.000000 -2.765300 1.052440 0.202724 0.991487 -14.002491 -3.540570 -2.761683 -0.122408 -3.992157 27.293612 0.242095 -69.245899 -178.910248 -39.063150 -178.233199 0.000000 0.000000 0.000000 -2.015370 0.723270 -0.738993 0.977602 2.142086 0.529552 0.814915 4.159891 0.424582 12.077288 7.406933 73.158286 -179.869098 46.095236 -179.365890 0.000000 0.000000 0.000000 
0.187282 5.721235 0.522911 0.000000 0.000000 0.000000 -90.216513 -3.508953 -3.003173 -21.259298 12.439990 -4.784216 32.950465 -10.126636 -7.747248 -2.756120 7.139413 8.719734 9.844964 -0.106803 2.783487 0.000000 0.000000 0.000000 -91.580754 -4.392559 -6.585006 -3.872166 -7.426165 -3.962121 17.033913 0.814628 9.211019 4.428732 -5.722771 29.095564 0.171164 -1.536084 -0.553435 0.000000 0.000000 0.000000 -87.941035 -4.355496 -5.914028 4.522681 2.467427 2.023085 -1.388763 1.020832 -0.054963 0.416556 0.670846 -0.274581 0.000000 0.000000 0.000000 -1.997303 0.468398 0.245029 2.503728 0.830653 -0.112678 10.581755 -5.270557 10.439901 0.000000 0.000000 0.000000 -2.768525 1.052863 0.201870 0.994801 -14.002622 -3.520089 -2.763178 -0.120526 -4.000622 27.299347 0.255079 -69.264573 -178.905727 -39.046446 -178.229497 0.000000 0.000000 0.000000 -2.017754 0.722687 -0.740173 0.975364 2.136055 0.522402 0.827615 4.172348 0.424820 12.087412 7.406803 73.159659 -179.867390 46.077918 -179.365562 0.000000 0.000000 0.000000 
0.187309 5.720297 0.523462 0.000000 0.000000 0.000000 -90.211930 -3.508340 -3.002573 -21.267054 12.439289 -4.785040 32.961445 -10.124776 -7.747570 -2.758098 7.139965 8.719894 9.844407 -0.106578 2.785194 0.000000 0.000000 0.000000 -91.574054 -4.388316 -6.579990 -3.873521 -7.436404 -3.963532 17.031113 0.810151 9.212575 4.428520 -5.732357 29.084243 0.178711 -1.537289 -0.548915 0.000000 0.000000 0.000000 -87.938365 -4.357137 -5.916362 4.520650 2.463481 2.025667 -1.391214 1.019957 -0.056671 0.415527 0.673832 -0.275081 0.000000 0.000000 0.000000 -1.996500 0.468790 0.242832 2.505379 0.833514 -0.108785 10.579613 -5.274485 10.445641 0.000000 0.000000 0.000000 -2.771503 1.053726 0.201695 0.998373 -14.000840 -3.493645 -2.766918 -0.118981 -4.005453 27.305681 0.270710 -69.284606 -178.901793 -39.032243 -178.226287 0.000000 0.000000 0.000000 -2.020943 0.721968 -0.741348 0.973260 2.128151 0.514760 0.840011 4.187523 0.426325 12.098627 7.406799 73.159461 -179.862978 46.065808 -179.365658 0.000000 0.000000 0.000000 
0.187239 5.719265 0.523840 0.000000 0.000000 0.000000 -90.205619 -3.508522 -3.002143 -21.273485 12.438724 -4.786390 32.971676 -10.122559 -7.747016 -2.762106 7.140700 8.720690 9.842410 -0.106279 2.787729 0.000000 0.000000 0.000000 -91.565803 -4.384485 -6.574825 -3.877457 -7.447889 -3.965061 17.027137 0.807021 9.213968 4.429368 -5.741682 29.074585 0.186658 -1.538460 -0.545183 0.000000 0.000000 0.000000 -87.934690 -4.358721 -5.917510 4.516637 2.458635 2.029627 -1.394005 1.019000 -0.057931 0.416992 0.671739 -0.274009 0.000000 0.000000 0.000000 -1.994810 0.470091 0.241353 2.508556 0.837616 -0.104594 10.572067 -5.280434 10.454083 0.000000 0.000000 0.000000 -2.773776 1.055255 0.202672 1.001241 -13.993375 -3.471172 -2.771976 -0.120738 -4.010136 27.310298 0.284022 -69.296422 -178.899115 -39.024023 -178.223719 0.000000 0.000000 0.000000 -2.024205 0.721529 -0.741726 0.971480 2.121199 0.508821 0.849246 4.205153 0.426235 12.108477 7.405785 73.154584 -179.856352 46.059616 -179.366792 0.000000 0.000000 0.000000 
0.187211 5.718237 0.523922 0.000000 0.000000 0.000000 -90.198133 -3.509602 -3.001679 -21.277318 12.438178 -4.788445 32.977926 -10.119325 -7.745548 -2.768430 7.141846 8.723127 9.840775 -0.105982 2.789937 0.000000 0.000000 0.000000 -91.557873 -4.382354 -6.570702 -3.882476 -7.459039 -3.966447 17.021904 0.806336 9.214618 4.430685 -5.750047 29.068028 0.193964 -1.539590 -0.543335 0.000000 0.000000 0.000000 -87.930039 -4.360538 -5.917364 4.511112 2.453782 2.034925 -1.397215 1.018349 -0.057826 0.420259 0.666650 -0.270469 0.000000 0.000000 0.000000 -1.992532 0.472090 0.241503 2.511479 0.842557 -0.101489 10.557714 -5.288462 10.464068 0.000000 0.000000 0.000000 -2.775856 1.057643 0.204922 1.002298 -13.978301 -3.462714 -2.780418 -0.126697 -4.014576 27.312513 0.295436 -69.292262 -178.898336 -39.024692 -178.221410 0.000000 0.000000 0.000000 -2.027487 0.721641 -0.740873 0.970571 2.118359 0.505630 0.855164 4.223615 0.425842 12.115964 7.403899 73.143478 -179.848484 46.055235 -179.368841 0.000000 0.000000 0.000000 
0.187273 5.717260 0.523598 0.000000 0.000000 0.000000 -90.191535 -3.512229 -3.001806 -21.277964 12.437477 -4.790739 32.978004 -10.115485 -7.743619 -2.775835 7.143352 8.727480 9.840839 -0.105705 2.791130 0.000000 0.000000 0.000000 -91.552334 -4.382768 -6.568030 -3.887438 -7.468510 -3.967637 17.016103 0.807440 9.214401 4.431580 -5.758237 29.063486 0.202604 -1.540791 -0.543380 0.000000 0.000000 0.000000 -87.924451 -4.362209 -5.915363 4.505135 2.449234 2.041757 -1.401009 1.018255 -0.056265 0.425688 0.660174 -0.266296 0.000000 0.000000 0.000000 -1.990185 0.474527 0.243101 2.512941 0.847830 -0.100679 10.538267 -5.296895 10.473625 0.000000 0.000000 0.000000 -2.777722 1.060364 0.208093 1.000920 -13.956074 -3.472861 -2.787197 -0.131069 -4.016573 27.306799 0.309055 -69.270850 -178.899552 -39.033694 -178.218651 0.000000 0.000000 0.000000 -2.030294 0.722317 -0.738894 0.970488 2.120592 0.505244 0.861324 4.242413 0.426120 12.121197 7.405652 73.128138 -179.842323 46.049576 -179.369565 0.000000 0.000000 0.000000 
